<?xml version="1.0" encoding="UTF-8" standalone="no"?>
<!-- Created with Inkscape (http://www.inkscape.org/) -->

<svg
   width="126.36231mm"
   height="21.337191mm"
   viewBox="0 0 126.36231 21.337191"
   version="1.1"
   id="svg1"
   inkscape:version="1.3.2 (091e20e, 2023-11-25, custom)"
   sodipodi:docname="logo.svg"
   inkscape:export-filename="logo.pdf"
   inkscape:export-xdpi="96"
   inkscape:export-ydpi="96"
   xmlns:inkscape="http://www.inkscape.org/namespaces/inkscape"
   xmlns:sodipodi="http://sodipodi.sourceforge.net/DTD/sodipodi-0.dtd"
   xmlns="http://www.w3.org/2000/svg"
   xmlns:svg="http://www.w3.org/2000/svg">
  <sodipodi:namedview
     id="namedview1"
     pagecolor="#ffffff"
     bordercolor="#000000"
     borderopacity="0.25"
     inkscape:showpageshadow="2"
     inkscape:pageopacity="0.0"
     inkscape:pagecheckerboard="0"
     inkscape:deskcolor="#d1d1d1"
     inkscape:document-units="mm"
     inkscape:zoom="0.69219276"
     inkscape:cx="133.6333"
     inkscape:cy="390.7871"
     inkscape:window-width="1920"
     inkscape:window-height="991"
     inkscape:window-x="-9"
     inkscape:window-y="1341"
     inkscape:window-maximized="1"
     inkscape:current-layer="layer1" />
  <defs
     id="defs1" />
  <g
     inkscape:label="Camada 1"
     inkscape:groupmode="layer"
     id="layer1"
     transform="translate(-29.964579,-40.918406)">
    <path
       id="path4"
       style="font-weight:900;font-size:29.5939px;font-family:Orbitron;-inkscape-font-specification:'Orbitron Heavy';fill:#ffffff;stroke-width:0.154135"
       d="m 139.39924,40.947859 c -0.78917,0 -1.51925,0.197626 -2.19004,0.592211 -0.6708,0.394585 -1.20326,0.927042 -1.59784,1.597836 -0.39459,0.651071 -0.59221,1.381151 -0.59221,2.190051 v 0.23409 h 21.30774 v -0.23409 c 0,-0.8089 -0.20735,-1.53898 -0.62167,-2.190051 -0.39457,-0.670794 -0.92703,-1.203251 -1.59783,-1.597836 -0.65106,-0.394585 -1.37142,-0.592211 -2.16059,-0.592211 z m -4.38009,6.907588 v 1.67483 c 0,0.8089 0.19762,1.54871 0.59221,2.21951 0.39458,0.65106 0.92704,1.17379 1.59784,1.56838 0.67079,0.39458 1.40087,0.59221 2.19004,0.59221 h 12.28142 v 3.72845 h -12.07419 v -1.74614 h -4.58732 v 1.98282 c 0,0.78917 0.19762,1.51925 0.59221,2.19005 0.39458,0.67079 0.92704,1.20376 1.59784,1.59835 0.67079,0.39459 1.40087,0.59169 2.19004,0.59169 h 12.54756 c 0.78917,0 1.50953,-0.1971 2.16059,-0.59169 0.6708,-0.39459 1.20326,-0.92756 1.59783,-1.59835 0.41432,-0.6708 0.62167,-1.40088 0.62167,-2.19005 v -4.20233 c 0,-0.8089 -0.20735,-1.53846 -0.62167,-2.18953 -0.39457,-0.6708 -0.92703,-1.20377 -1.59783,-1.59835 -0.65106,-0.39459 -1.37142,-0.59169 -2.16059,-0.59169 h -12.34033 v -1.43816 z" />
    <path
       style="font-weight:900;font-size:29.5939px;font-family:Orbitron;-inkscape-font-specification:'Orbitron Heavy';fill:#ffffff;stroke-width:0.154135"
       d="m 128.00562,47.855447 v 14.40015 h 4.52789 v -14.40015 z"
       id="path16" />
    <path
       style="font-weight:900;font-size:29.5939px;font-family:Orbitron;-inkscape-font-specification:'Orbitron Heavy';fill:#0061e0;fill-opacity:1;stroke-width:0.154135"
       d="m 128.00562,40.947859 v 4.614188 h 4.52789 v -4.614188 z"
       id="path3" />
    <path
       style="font-weight:900;font-size:29.5939px;font-family:Orbitron;-inkscape-font-specification:'Orbitron Heavy';fill:#ffffff;stroke-width:0.154135"
       d="m 104.66286,47.855447 v 14.40015 h 21.30775 v -4.61677 h -16.72043 v -9.78338 z"
       id="path17" />
    <path
       style="font-weight:900;font-size:29.5939px;font-family:Orbitron;-inkscape-font-specification:'Orbitron Heavy';fill:#0061e0;fill-opacity:1;stroke-width:0.154135"
       d="m 104.66286,40.918403 v 4.643644 h 4.58732 v -4.643644 z"
       id="path2" />
    <path
       id="path1"
       style="font-weight:900;font-size:29.5939px;font-family:Orbitron;-inkscape-font-specification:'Orbitron Heavy';fill:#ffffff;stroke-width:0.154135"
       d="m 81.49425,40.947859 v 4.614188 h 19.67994 v -4.614188 z m 0,6.907588 v 14.40015 h 19.67994 v -4.61677 H 86.140479 v -3.72845 h 12.10417 v -4.61677 h -12.10417 v -1.43816 z" />
    <path
       id="text1"
       style="font-weight:900;font-size:29.5939px;font-family:Orbitron;-inkscape-font-specification:'Orbitron Heavy';fill:#ffffff;stroke-width:0.154135"
       d="m 51.660413,40.947859 10.306347,17.795808 2.64635,-4.58886 -7.625891,-13.206948 z m 23.201684,0 -0.376721,0.652156 0.01189,0.0067 -11.203968,19.427232 0.707451,1.22163 h 3.817854 L 80.158931,40.947859 Z" />
    <path
       id="path5"
       style="font-weight:900;font-size:29.5939px;font-family:Orbitron;-inkscape-font-specification:'Orbitron Heavy';fill:#ffffff;stroke-width:0.154135"
       d="m 42.304911,40.947859 -0.709,1.224214 11.582755,20.083524 h 5.284432 L 46.122766,40.947859 Z m -2.035534,3.514518 -10.304798,17.79322 h 5.326807 l 7.624341,-13.20384 z" />
  </g>
</svg>
