<?xml version="1.0"?>
<svg xmlns="http://www.w3.org/2000/svg" viewBox="0 0 285.72 62.47" width="285.72" height="62.47" role="img" aria-label="Plantão+ by Avelis">
  <title>Plantão+ by Avelis</title>
  <path fill="#EDF1F5" d="M15.284 37.680L8.464 37.680L8.464 6.044L33.588 6.044Q35.392 6.044 36.866 6.924Q38.340 7.804 39.242 9.300Q40.144 10.796 40.144 12.556L40.144 12.556L40.144 20.740Q40.144 22.500 39.242 23.996Q38.340 25.492 36.866 26.372Q35.392 27.252 33.588 27.252L33.588 27.252L15.284 27.296L15.284 37.680ZM15.284 12.864L15.284 20.388L33.236 20.388L33.236 12.864L15.284 12.864Z M75.652 37.680L43.972 37.680L43.972 5.956L50.792 5.956L50.792 30.816L75.652 30.816L75.652 37.680Z M85.772 37.680L78.952 37.680L78.952 12.512Q78.952 10.708 79.832 9.234Q80.712 7.760 82.208 6.880Q83.704 6 85.464 6L85.464 6L104.076 6Q105.880 6 107.354 6.880Q108.828 7.760 109.730 9.234Q110.632 10.708 110.632 12.512L110.632 12.512L110.632 37.680L103.724 37.680L103.724 27.472L85.772 27.472L85.772 37.680ZM85.772 12.864L85.772 20.608L103.724 20.608L103.724 12.864L85.772 12.864Z M123.128 37.680L116.308 37.680L116.308 6L123.348 6L141.080 27.120L141.080 6L147.988 6L147.988 37.680L140.948 37.680L123.128 16.472L123.128 37.680Z M171.264 37.680L164.400 37.680L164.400 12.864L151.992 12.864L151.992 6L183.672 6L183.672 12.864L171.264 12.864L171.264 37.680Z M194.540 37.680L187.720 37.680L187.720 12.512Q187.720 10.708 188.600 9.234Q189.480 7.760 190.976 6.880Q192.472 6 194.232 6L194.232 6L212.844 6Q214.648 6 216.122 6.880Q217.596 7.760 218.498 9.234Q219.400 10.708 219.400 12.512L219.400 12.512L219.400 37.680L212.492 37.680L212.492 27.472L194.540 27.472L194.540 37.680ZM194.540 12.864L194.540 20.608L212.492 20.608L212.492 12.864L194.540 12.864ZM211.832 3.008L207.344 3.008Q204.836 3.008 202.460 1.160L202.460 1.160Q200.172-0.688 198.676-0.688L198.676-0.688L195.288-0.688L195.288-5.792L199.204-5.792Q201.624-5.792 203.692-3.900Q205.760-2.008 207.740-2.008L207.740-2.008L211.832-2.008L211.832 3.008Z M250.156 37.680L231.500 37.680Q229.740 37.680 228.244 36.800Q226.748 35.920 225.868 34.424Q224.988 32.928 224.988 31.168L224.988 31.168L224.988 12.512Q224.988 10.708 225.868 9.234Q226.748 7.760 228.244 6.880Q229.740 6 231.500 6L231.500 6L250.156 6Q251.916 6 253.390 6.880Q254.864 7.760 255.766 9.234Q256.668 10.708 256.668 12.512L256.668 12.512L256.668 31.168Q256.668 32.928 255.766 34.424Q254.864 35.920 253.390 36.800Q251.916 37.680 250.156 37.680L250.156 37.680ZM231.808 12.864L231.808 30.816L249.760 30.816L249.760 12.864L231.808 12.864Z"></path>
  <path fill="#FF6C8A" d="M272.904 33.896L266.172 33.896L266.172 28.044L260.452 28.044L260.452 21.312L266.172 21.312L266.172 15.548L272.904 15.548L272.904 21.312L278.800 21.312L278.800 28.044L272.904 28.044L272.904 33.896Z"></path>
  <path fill="#8A98A8" d="M9.454 54.710L6.935 54.710L6.935 46.680L9.300 46.680Q10.444 46.680 11.093 47.230Q11.742 47.780 11.742 48.748L11.742 48.748Q11.742 49.298 11.505 49.700Q11.269 50.101 10.851 50.321L10.851 50.321Q10.653 50.420 10.422 50.475L10.422 50.475Q10.697 50.530 10.939 50.651L10.939 50.651Q11.401 50.893 11.665 51.355Q11.929 51.817 11.929 52.455L11.929 52.455Q11.929 53.137 11.627 53.648Q11.324 54.160 10.768 54.435Q10.213 54.710 9.454 54.710L9.454 54.710ZM8.090 51.036L8.090 53.687L9.355 53.687Q9.993 53.687 10.367 53.346Q10.741 53.005 10.741 52.400L10.741 52.400Q10.741 51.784 10.367 51.410Q9.993 51.036 9.355 51.036L9.355 51.036L8.090 51.036ZM8.090 47.703L8.090 50.046L9.289 50.046Q9.883 50.046 10.224 49.727Q10.565 49.408 10.565 48.869Q10.565 48.330 10.224 48.017Q9.883 47.703 9.300 47.703L9.300 47.703L8.090 47.703Z M19.794 54.710L18.606 54.710L18.606 51.751L16.219 46.680L17.451 46.680L18.870 49.716Q19.013 50.013 19.101 50.272Q19.189 50.530 19.222 50.673L19.222 50.673Q19.244 50.530 19.337 50.272Q19.431 50.013 19.563 49.716L19.563 49.716L20.949 46.680L22.181 46.680L19.794 51.751L19.794 54.710Z"></path>
  <g transform="translate(30.500 46.195) scale(0.42180) translate(-29.964579 -40.918406)">
    <path fill="#EDF1F5" d="m 139.39924,40.947859 c -0.78917,0 -1.51925,0.197626 -2.19004,0.592211 -0.6708,0.394585 -1.20326,0.927042 -1.59784,1.597836 -0.39459,0.651071 -0.59221,1.381151 -0.59221,2.190051 v 0.23409 h 21.30774 v -0.23409 c 0,-0.8089 -0.20735,-1.53898 -0.62167,-2.190051 -0.39457,-0.670794 -0.92703,-1.203251 -1.59783,-1.597836 -0.65106,-0.394585 -1.37142,-0.592211 -2.16059,-0.592211 z m -4.38009,6.907588 v 1.67483 c 0,0.8089 0.19762,1.54871 0.59221,2.21951 0.39458,0.65106 0.92704,1.17379 1.59784,1.56838 0.67079,0.39458 1.40087,0.59221 2.19004,0.59221 h 12.28142 v 3.72845 h -12.07419 v -1.74614 h -4.58732 v 1.98282 c 0,0.78917 0.19762,1.51925 0.59221,2.19005 0.39458,0.67079 0.92704,1.20376 1.59784,1.59835 0.67079,0.39459 1.40087,0.59169 2.19004,0.59169 h 12.54756 c 0.78917,0 1.50953,-0.1971 2.16059,-0.59169 0.6708,-0.39459 1.20326,-0.92756 1.59783,-1.59835 0.41432,-0.6708 0.62167,-1.40088 0.62167,-2.19005 v -4.20233 c 0,-0.8089 -0.20735,-1.53846 -0.62167,-2.18953 -0.39457,-0.6708 -0.92703,-1.20377 -1.59783,-1.59835 -0.65106,-0.39459 -1.37142,-0.59169 -2.16059,-0.59169 h -12.34033 v -1.43816 z"></path>
    <path fill="#EDF1F5" d="m 128.00562,47.855447 v 14.40015 h 4.52789 v -14.40015 z"></path>
    <path fill="#EDF1F5" d="m 104.66286,47.855447 v 14.40015 h 21.30775 v -4.61677 h -16.72043 v -9.78338 z"></path>
    <path fill="#EDF1F5" d="m 81.49425,40.947859 v 4.614188 h 19.67994 v -4.614188 z m 0,6.907588 v 14.40015 h 19.67994 v -4.61677 H 86.140479 v -3.72845 h 12.10417 v -4.61677 h -12.10417 v -1.43816 z"></path>
    <path fill="#EDF1F5" d="m 51.660413,40.947859 10.306347,17.795808 2.64635,-4.58886 -7.625891,-13.206948 z m 23.201684,0 -0.376721,0.652156 0.01189,0.0067 -11.203968,19.427232 0.707451,1.22163 h 3.817854 L 80.158931,40.947859 Z"></path>
    <path fill="#EDF1F5" d="m 42.304911,40.947859 -0.709,1.224214 11.582755,20.083524 h 5.284432 L 46.122766,40.947859 Z m -2.035534,3.514518 -10.304798,17.79322 h 5.326807 l 7.624341,-13.20384 z"></path>
    <path fill="#0061E0" d="m 128.00562,40.947859 v 4.614188 h 4.52789 v -4.614188 z"></path>
    <path fill="#0061E0" d="m 104.66286,40.918403 v 4.643644 h 4.58732 v -4.643644 z"></path>
  </g>
</svg>